<?xml version="1.0" encoding="UTF-8" standalone="no"?>
<svg
   xmlns:dc="http://purl.org/dc/elements/1.1/"
   xmlns:cc="http://creativecommons.org/ns#"
   xmlns:rdf="http://www.w3.org/1999/02/22-rdf-syntax-ns#"
   xmlns:svg="http://www.w3.org/2000/svg"
   xmlns="http://www.w3.org/2000/svg"
   xmlns:sodipodi="http://sodipodi.sourceforge.net/DTD/sodipodi-0.dtd"
   xmlns:inkscape="http://www.inkscape.org/namespaces/inkscape"
   width="100%"
   height="100%"
   viewBox="0 0 1024 640"
   version="1.1"
   xml:space="preserve"
   style="fill-rule:evenodd;clip-rule:evenodd;stroke-linejoin:round;stroke-miterlimit:1.41421;"
   id="svg169"
   sodipodi:docname="bg.svg"
   inkscape:version="0.92.1 r15371"><metadata
     id="metadata173"><rdf:RDF><cc:Work
         rdf:about=""><dc:format>image/svg+xml</dc:format><dc:type
           rdf:resource="http://purl.org/dc/dcmitype/StillImage" /></cc:Work></rdf:RDF></metadata><sodipodi:namedview
     pagecolor="#ffffff"
     bordercolor="#666666"
     borderopacity="1"
     objecttolerance="10"
     gridtolerance="10"
     guidetolerance="10"
     inkscape:pageopacity="0"
     inkscape:pageshadow="2"
     inkscape:window-width="1366"
     inkscape:window-height="716"
     id="namedview171"
     showgrid="false"
     inkscape:zoom="0.56445312"
     inkscape:cx="626.58498"
     inkscape:cy="336.11959"
     inkscape:window-x="-8"
     inkscape:window-y="-8"
     inkscape:window-maximized="1"
     inkscape:current-layer="svg169" /><rect
     id="rect2"
     style="fill:#a5d9fe;stroke-width:1.60000002"
     height="640"
     width="1024"
     y="0"
     x="0" /><g
     transform="matrix(1.716608,0,0,1.63528,-2379.056,-1427.6672)"
     id="g11"><g
       id="g9"><rect
         x="1385.9"
         y="873.04498"
         width="596.52698"
         height="391.37201"
         style="fill:url(#_Linear2)"
         id="rect7" /></g></g><g
     transform="matrix(1.716608,0,0,1.63528,-2379.056,-1427.6672)"
     id="g26"><g
       id="g24"><path
         d="M 1982.43,936.753 H 1385.9 v 327.667 h 596.53 z"
         style="fill:none"
         id="path13"
         inkscape:connector-curvature="0" /><clipPath
         id="_clip3"><path
           d="M 1982.43,936.753 H 1385.9 v 327.667 h 596.53 z"
           id="path15"
           inkscape:connector-curvature="0" /></clipPath><g
         clip-path="url(#_clip3)"
         id="g22"><g
           transform="matrix(0.582545,0,0,0.611519,760.251,873.045)"
           id="g20"><path
             d="m 1067.42,255.515 c 0,0 19.81,0 26.34,0 68.92,0 98.99,46.666 214.99,42.666 51.08,-1.761 226.64,-188.686 338.67,-188 114.9,0.705 196.54,180.589 285.94,182.511 74.41,1.6 99.94,-35.796 155.63,-36.747 13.84,-0.237 21.1,-0.43 21.1,-0.43 V 648.848 H 1068.75 Z"
             style="fill:url(#_Linear4)"
             id="path18"
             inkscape:connector-curvature="0" /></g></g></g></g><g
     transform="matrix(1.716608,0,0,1.63528,-2379.056,-1427.6672)"
     id="g125"><g
       id="g123"><rect
         x="1385.9"
         y="1043.45"
         width="596.52698"
         height="220.96201"
         style="fill:none"
         id="rect28" /><clipPath
         id="_clip5"><rect
           x="1385.9"
           y="1043.45"
           width="596.52698"
           height="220.96201"
           id="rect30" /></clipPath><g
         clip-path="url(#_clip5)"
         id="g121"><g
           transform="matrix(0.582545,0,0,0.489277,-826.603,953.03)"
           id="g35"><path
             d="m 3790.66,288.072 c 0,0 22.93,0 67.36,0 44.43,0 335.89,-44.804 451.98,-41.938 116.09,2.867 432.34,41.61 462.44,41.61 30.09,0 61.63,0 61.63,0 V 654.316 H 3792.09 Z"
             style="fill:url(#_Linear6)"
             id="path33"
             inkscape:connector-curvature="0" /></g><g
           transform="matrix(0.582545,0,0,0.611519,284.894,873.045)"
           id="g39"><path
             d="m 1961.19,356.16 c -38.92,4.746 -25.75,9.417 1.25,6.417 27,-3 255.45,-24.912 418.08,-28.167 49.99,-1.001 294.18,10.026 409.03,25.698 24.85,3.391 -6.03,-11.698 -59.03,-17.698 -53,-6 -267.33,-19.333 -356.33,-17.667 -66.11,1.238 -372,26.417 -413,31.417 z"
             style="fill:#82f591"
             id="path37"
             inkscape:connector-curvature="0" /></g><g
           transform="matrix(0.582545,0,0,0.611519,760.251,824.124)"
           id="g49"><g
             transform="matrix(0.270656,0,0,0.272873,1609.48,371.65)"
             id="g43"><path
               d="m 1312.45,196.686 c 0,0 6.91,2.304 11.01,-0.768 4.1,-3.072 4.1,-6.912 4.1,-6.912 0,0 9.21,6.144 15.1,0.256 5.89,-5.889 3.84,-14.849 3.84,-14.849 0,0 12.8,3.072 17.92,-4.865 5.12,-7.936 -0.51,-19.969 -0.51,-19.969 0,0 21.76,-0.768 23.3,-17.153 1.53,-16.385 -7.17,-25.857 -7.17,-25.857 0,0 10.34,-17.713 -7.19,-28.877 11,-9.705 12.82,-32.311 0.53,-38.455 -12.29,-6.145 -24.83,4.352 -24.83,4.352 0,0 -4.61,-23.042 -24.84,-25.602 -20.22,-2.56 -26.36,11.265 -26.36,11.265 0,0 -16.13,-19.457 -38.41,-9.217 -22.27,10.241 -14.08,30.21 -14.08,30.21 0,0 -15.36,-4.608 -25.09,8.193 -9.73,12.8 2.27,24.747 2.27,24.747 0,0 -36.83,11.607 -7.39,36.952 -11.01,19.714 5.47,31.917 14.94,32.685 -7.34,12.459 9.38,32.855 24.23,23.383 -8.4,18.386 17.53,21.963 21.76,18.689 11.26,5.777 23.54,6.394 36.87,1.792 z"
               style="fill:#55a12b"
               id="path41"
               inkscape:connector-curvature="0" /></g><g
             transform="matrix(0.281768,0,0,0.166075,1594.56,399.092)"
             id="g47"><path
               d="m 1269.55,129.436 c 0.29,-4.276 6.78,-6.194 6.63,-1.179 -0.59,6.783 -0.14,20.794 6.49,32.592 1.18,-9.439 2.95,-27.578 3.1,-31.413 0.15,-3.834 -0.17,-24.615 0.26,-28.303 0.84,-7.093 5.49,-8.418 5.93,-3.846 0.45,4.571 0.3,8.258 2.95,8.553 2.66,0.295 5.31,-4.424 6.05,-7.669 0.74,-3.244 7.82,-5.309 7.82,0.59 0,5.899 -0.45,16.223 -0.74,19.615 -0.3,3.392 -1.77,11.503 -1.62,14.452 0.14,2.95 0.88,13.863 0.88,13.863 0,0 5.02,-14.01 5.46,-17.55 0.44,-3.539 2.06,-16.517 3.1,-20.056 1.03,-3.54 3.68,-4.13 4.27,-0.885 0.59,3.244 0.89,6.784 0,11.65 -0.88,4.867 -3.69,23.892 -3.98,28.906 -0.29,5.014 -1.03,28.463 -1.03,31.707 0,3.245 -1.33,16.37 -1.18,20.352 0.15,3.982 1.18,19.024 1.33,22.859 0.14,3.834 0.14,13.567 1.47,16.812 1.33,3.244 5.01,11.65 10.32,15.927 -21.38,0 -56.77,0 -56.77,0 0,0 4.27,-9.881 5.45,-14.6 1.18,-4.719 3.25,-15.19 3.69,-22.121 0.44,-6.932 0.15,-22.269 0.15,-22.269 0,0 1.03,-11.061 -0.59,-16.37 -1.63,-5.309 -6.2,-15.043 -8.11,-27.136 -1.92,-12.093 -1.63,-20.204 -1.33,-24.481 z"
               style="fill:#967f53"
               id="path45"
               inkscape:connector-curvature="0" /></g></g><g
           transform="matrix(0.704781,0,0,0.739834,355.139,774.753)"
           id="g59"><g
             transform="matrix(0.270656,0,0,0.272873,1609.48,371.65)"
             id="g53"><path
               d="m 1312.45,196.686 c 0,0 6.91,2.304 11.01,-0.768 4.1,-3.072 4.1,-6.912 4.1,-6.912 0,0 9.21,6.144 15.1,0.256 5.89,-5.889 3.84,-14.849 3.84,-14.849 0,0 12.8,3.072 17.92,-4.865 5.12,-7.936 -0.51,-19.969 -0.51,-19.969 0,0 21.76,-0.768 23.3,-17.153 1.53,-16.385 -7.17,-25.857 -7.17,-25.857 0,0 10.34,-17.713 -7.19,-28.877 11,-9.705 12.82,-32.311 0.53,-38.455 -12.29,-6.145 -24.83,4.352 -24.83,4.352 0,0 -4.61,-23.042 -24.84,-25.602 -20.22,-2.56 -26.36,11.265 -26.36,11.265 0,0 -16.13,-19.457 -38.41,-9.217 -22.27,10.241 -14.08,30.21 -14.08,30.21 0,0 -15.36,-4.608 -25.09,8.193 -9.73,12.8 2.27,24.747 2.27,24.747 0,0 -36.83,11.607 -7.39,36.952 -11.01,19.714 5.47,31.917 14.94,32.685 -7.34,12.459 9.38,32.855 24.23,23.383 -8.4,18.386 17.53,21.963 21.76,18.689 11.26,5.777 23.54,6.394 36.87,1.792 z"
               style="fill:#55a12b"
               id="path51"
               inkscape:connector-curvature="0" /></g><g
             transform="matrix(0.281768,0,0,0.166075,1594.56,399.092)"
             id="g57"><path
               d="m 1269.55,129.436 c 0.29,-4.276 6.78,-6.194 6.63,-1.179 -0.59,6.783 -0.14,20.794 6.49,32.592 1.18,-9.439 2.95,-27.578 3.1,-31.413 0.15,-3.834 -0.17,-24.615 0.26,-28.303 0.84,-7.093 5.49,-8.418 5.93,-3.846 0.45,4.571 0.3,8.258 2.95,8.553 2.66,0.295 5.31,-4.424 6.05,-7.669 0.74,-3.244 7.82,-5.309 7.82,0.59 0,5.899 -0.45,16.223 -0.74,19.615 -0.3,3.392 -1.77,11.503 -1.62,14.452 0.14,2.95 0.88,13.863 0.88,13.863 0,0 5.02,-14.01 5.46,-17.55 0.44,-3.539 2.06,-16.517 3.1,-20.056 1.03,-3.54 3.68,-4.13 4.27,-0.885 0.59,3.244 0.89,6.784 0,11.65 -0.88,4.867 -3.69,23.892 -3.98,28.906 -0.29,5.014 -1.03,28.463 -1.03,31.707 0,3.245 -1.33,16.37 -1.18,20.352 0.15,3.982 1.18,19.024 1.33,22.859 0.14,3.834 0.14,13.567 1.47,16.812 1.33,3.244 5.01,11.65 10.32,15.927 -21.38,0 -56.77,0 -56.77,0 0,0 4.27,-9.881 5.45,-14.6 1.18,-4.719 3.25,-15.19 3.69,-22.121 0.44,-6.932 0.15,-22.269 0.15,-22.269 0,0 1.03,-11.061 -0.59,-16.37 -1.63,-5.309 -6.2,-15.043 -8.11,-27.136 -1.92,-12.093 -1.63,-20.204 -1.33,-24.481 z"
               style="fill:#967f53"
               id="path55"
               inkscape:connector-curvature="0" /></g></g><g
           transform="matrix(0.906732,0,0,0.951829,-174.511,709.764)"
           id="g69"><g
             transform="matrix(0.270656,0,0,0.272873,1609.48,371.65)"
             id="g63"><path
               d="m 1312.45,196.686 c 0,0 6.91,2.304 11.01,-0.768 4.1,-3.072 4.1,-6.912 4.1,-6.912 0,0 9.21,6.144 15.1,0.256 5.89,-5.889 3.84,-14.849 3.84,-14.849 0,0 12.8,3.072 17.92,-4.865 5.12,-7.936 -0.51,-19.969 -0.51,-19.969 0,0 21.76,-0.768 23.3,-17.153 1.53,-16.385 -7.17,-25.857 -7.17,-25.857 0,0 10.34,-17.713 -7.19,-28.877 11,-9.705 12.82,-32.311 0.53,-38.455 -12.29,-6.145 -24.83,4.352 -24.83,4.352 0,0 -4.61,-23.042 -24.84,-25.602 -20.22,-2.56 -26.36,11.265 -26.36,11.265 0,0 -16.13,-19.457 -38.41,-9.217 -22.27,10.241 -14.08,30.21 -14.08,30.21 0,0 -15.36,-4.608 -25.09,8.193 -9.73,12.8 2.27,24.747 2.27,24.747 0,0 -36.83,11.607 -7.39,36.952 -11.01,19.714 5.47,31.917 14.94,32.685 -7.34,12.459 9.38,32.855 24.23,23.383 -8.4,18.386 17.53,21.963 21.76,18.689 11.26,5.777 23.54,6.394 36.87,1.792 z"
               style="fill:#55a12b"
               id="path61"
               inkscape:connector-curvature="0" /></g><g
             transform="matrix(0.281768,0,0,0.166075,1594.56,399.092)"
             id="g67"><path
               d="m 1269.55,129.436 c 0.29,-4.276 6.78,-6.194 6.63,-1.179 -0.59,6.783 -0.14,20.794 6.49,32.592 1.18,-9.439 2.95,-27.578 3.1,-31.413 0.15,-3.834 -0.17,-24.615 0.26,-28.303 0.84,-7.093 5.49,-8.418 5.93,-3.846 0.45,4.571 0.3,8.258 2.95,8.553 2.66,0.295 5.31,-4.424 6.05,-7.669 0.74,-3.244 7.82,-5.309 7.82,0.59 0,5.899 -0.45,16.223 -0.74,19.615 -0.3,3.392 -1.77,11.503 -1.62,14.452 0.14,2.95 0.88,13.863 0.88,13.863 0,0 5.02,-14.01 5.46,-17.55 0.44,-3.539 2.06,-16.517 3.1,-20.056 1.03,-3.54 3.68,-4.13 4.27,-0.885 0.59,3.244 0.89,6.784 0,11.65 -0.88,4.867 -3.69,23.892 -3.98,28.906 -0.29,5.014 -1.03,28.463 -1.03,31.707 0,3.245 -1.33,16.37 -1.18,20.352 0.15,3.982 1.18,19.024 1.33,22.859 0.14,3.834 0.14,13.567 1.47,16.812 1.33,3.244 5.01,11.65 10.32,15.927 -21.38,0 -56.77,0 -56.77,0 0,0 4.27,-9.881 5.45,-14.6 1.18,-4.719 3.25,-15.19 3.69,-22.121 0.44,-6.932 0.15,-22.269 0.15,-22.269 0,0 1.03,-11.061 -0.59,-16.37 -1.63,-5.309 -6.2,-15.043 -8.11,-27.136 -1.92,-12.093 -1.63,-20.204 -1.33,-24.481 z"
               style="fill:#967f53"
               id="path65"
               inkscape:connector-curvature="0" /></g></g><g
           transform="matrix(1.47219,0,0,1.54541,-1143.56,551.917)"
           id="g79"><g
             transform="matrix(0.270656,0,0,0.272873,1609.48,371.65)"
             id="g73"><path
               d="m 1312.45,196.686 c 0,0 6.91,2.304 11.01,-0.768 4.1,-3.072 4.1,-6.912 4.1,-6.912 0,0 9.21,6.144 15.1,0.256 5.89,-5.889 3.84,-14.849 3.84,-14.849 0,0 12.8,3.072 17.92,-4.865 5.12,-7.936 -0.51,-19.969 -0.51,-19.969 0,0 21.76,-0.768 23.3,-17.153 1.53,-16.385 -7.17,-25.857 -7.17,-25.857 0,0 10.34,-17.713 -7.19,-28.877 11,-9.705 12.82,-32.311 0.53,-38.455 -12.29,-6.145 -24.83,4.352 -24.83,4.352 0,0 -4.61,-23.042 -24.84,-25.602 -20.22,-2.56 -26.36,11.265 -26.36,11.265 0,0 -16.13,-19.457 -38.41,-9.217 -22.27,10.241 -14.08,30.21 -14.08,30.21 0,0 -15.36,-4.608 -25.09,8.193 -9.73,12.8 2.27,24.747 2.27,24.747 0,0 -36.83,11.607 -7.39,36.952 -11.01,19.714 5.47,31.917 14.94,32.685 -7.34,12.459 9.38,32.855 24.23,23.383 -8.4,18.386 17.53,21.963 21.76,18.689 11.26,5.777 23.54,6.394 36.87,1.792 z"
               style="fill:#55a12b"
               id="path71"
               inkscape:connector-curvature="0" /></g><g
             transform="matrix(0.281768,0,0,0.166075,1594.56,399.092)"
             id="g77"><path
               d="m 1269.55,129.436 c 0.29,-4.276 6.78,-6.194 6.63,-1.179 -0.59,6.783 -0.14,20.794 6.49,32.592 1.18,-9.439 2.95,-27.578 3.1,-31.413 0.15,-3.834 -0.17,-24.615 0.26,-28.303 0.84,-7.093 5.49,-8.418 5.93,-3.846 0.45,4.571 0.3,8.258 2.95,8.553 2.66,0.295 5.31,-4.424 6.05,-7.669 0.74,-3.244 7.82,-5.309 7.82,0.59 0,5.899 -0.45,16.223 -0.74,19.615 -0.3,3.392 -1.77,11.503 -1.62,14.452 0.14,2.95 0.88,13.863 0.88,13.863 0,0 5.02,-14.01 5.46,-17.55 0.44,-3.539 2.06,-16.517 3.1,-20.056 1.03,-3.54 3.68,-4.13 4.27,-0.885 0.59,3.244 0.89,6.784 0,11.65 -0.88,4.867 -3.69,23.892 -3.98,28.906 -0.29,5.014 -1.03,28.463 -1.03,31.707 0,3.245 -1.33,16.37 -1.18,20.352 0.15,3.982 1.18,19.024 1.33,22.859 0.14,3.834 0.14,13.567 1.47,16.812 1.33,3.244 5.01,11.65 10.32,15.927 -21.38,0 -56.77,0 -56.77,0 0,0 4.27,-9.881 5.45,-14.6 1.18,-4.719 3.25,-15.19 3.69,-22.121 0.44,-6.932 0.15,-22.269 0.15,-22.269 0,0 1.03,-11.061 -0.59,-16.37 -1.63,-5.309 -6.2,-15.043 -8.11,-27.136 -1.92,-12.093 -1.63,-20.204 -1.33,-24.481 z"
               style="fill:#967f53"
               id="path75"
               inkscape:connector-curvature="0" /></g></g><g
           transform="matrix(1.47219,0,0,1.54541,-1405.8,583.286)"
           id="g89"><g
             transform="matrix(0.270656,0,0,0.272873,1609.48,371.65)"
             id="g83"><path
               d="m 1312.45,196.686 c 0,0 6.91,2.304 11.01,-0.768 4.1,-3.072 4.1,-6.912 4.1,-6.912 0,0 9.21,6.144 15.1,0.256 5.89,-5.889 3.84,-14.849 3.84,-14.849 0,0 12.8,3.072 17.92,-4.865 5.12,-7.936 -0.51,-19.969 -0.51,-19.969 0,0 21.76,-0.768 23.3,-17.153 1.53,-16.385 -7.17,-25.857 -7.17,-25.857 0,0 10.34,-17.713 -7.19,-28.877 11,-9.705 12.82,-32.311 0.53,-38.455 -12.29,-6.145 -24.83,4.352 -24.83,4.352 0,0 -4.61,-23.042 -24.84,-25.602 -20.22,-2.56 -26.36,11.265 -26.36,11.265 0,0 -16.13,-19.457 -38.41,-9.217 -22.27,10.241 -14.08,30.21 -14.08,30.21 0,0 -15.36,-4.608 -25.09,8.193 -9.73,12.8 2.27,24.747 2.27,24.747 0,0 -36.83,11.607 -7.39,36.952 -11.01,19.714 5.47,31.917 14.94,32.685 -7.34,12.459 9.38,32.855 24.23,23.383 -8.4,18.386 17.53,21.963 21.76,18.689 11.26,5.777 23.54,6.394 36.87,1.792 z"
               style="fill:#55a12b"
               id="path81"
               inkscape:connector-curvature="0" /></g><g
             transform="matrix(0.281768,0,0,0.166075,1594.56,399.092)"
             id="g87"><path
               d="m 1269.55,129.436 c 0.29,-4.276 6.78,-6.194 6.63,-1.179 -0.59,6.783 -0.14,20.794 6.49,32.592 1.18,-9.439 2.95,-27.578 3.1,-31.413 0.15,-3.834 -0.17,-24.615 0.26,-28.303 0.84,-7.093 5.49,-8.418 5.93,-3.846 0.45,4.571 0.3,8.258 2.95,8.553 2.66,0.295 5.31,-4.424 6.05,-7.669 0.74,-3.244 7.82,-5.309 7.82,0.59 0,5.899 -0.45,16.223 -0.74,19.615 -0.3,3.392 -1.77,11.503 -1.62,14.452 0.14,2.95 0.88,13.863 0.88,13.863 0,0 5.02,-14.01 5.46,-17.55 0.44,-3.539 2.06,-16.517 3.1,-20.056 1.03,-3.54 3.68,-4.13 4.27,-0.885 0.59,3.244 0.89,6.784 0,11.65 -0.88,4.867 -3.69,23.892 -3.98,28.906 -0.29,5.014 -1.03,28.463 -1.03,31.707 0,3.245 -1.33,16.37 -1.18,20.352 0.15,3.982 1.18,19.024 1.33,22.859 0.14,3.834 0.14,13.567 1.47,16.812 1.33,3.244 5.01,11.65 10.32,15.927 -21.38,0 -56.77,0 -56.77,0 0,0 4.27,-9.881 5.45,-14.6 1.18,-4.719 3.25,-15.19 3.69,-22.121 0.44,-6.932 0.15,-22.269 0.15,-22.269 0,0 1.03,-11.061 -0.59,-16.37 -1.63,-5.309 -6.2,-15.043 -8.11,-27.136 -1.92,-12.093 -1.63,-20.204 -1.33,-24.481 z"
               style="fill:#967f53"
               id="path85"
               inkscape:connector-curvature="0" /></g></g><g
           transform="matrix(0.489632,0,0,0.513984,586.885,858.764)"
           id="g99"><g
             transform="matrix(0.270656,0,0,0.272873,1609.48,371.65)"
             id="g93"><path
               d="m 1312.45,196.686 c 0,0 6.91,2.304 11.01,-0.768 4.1,-3.072 4.1,-6.912 4.1,-6.912 0,0 9.21,6.144 15.1,0.256 5.89,-5.889 3.84,-14.849 3.84,-14.849 0,0 12.8,3.072 17.92,-4.865 5.12,-7.936 -0.51,-19.969 -0.51,-19.969 0,0 21.76,-0.768 23.3,-17.153 1.53,-16.385 -7.17,-25.857 -7.17,-25.857 0,0 10.34,-17.713 -7.19,-28.877 11,-9.705 12.82,-32.311 0.53,-38.455 -12.29,-6.145 -24.83,4.352 -24.83,4.352 0,0 -4.61,-23.042 -24.84,-25.602 -20.22,-2.56 -26.36,11.265 -26.36,11.265 0,0 -16.13,-19.457 -38.41,-9.217 -22.27,10.241 -14.08,30.21 -14.08,30.21 0,0 -15.36,-4.608 -25.09,8.193 -9.73,12.8 2.27,24.747 2.27,24.747 0,0 -36.83,11.607 -7.39,36.952 -11.01,19.714 5.47,31.917 14.94,32.685 -7.34,12.459 9.38,32.855 24.23,23.383 -8.4,18.386 17.53,21.963 21.76,18.689 11.26,5.777 23.54,6.394 36.87,1.792 z"
               style="fill:#55a12b"
               id="path91"
               inkscape:connector-curvature="0" /></g><g
             transform="matrix(0.281768,0,0,0.166075,1594.56,399.092)"
             id="g97"><path
               d="m 1269.55,129.436 c 0.29,-4.276 6.78,-6.194 6.63,-1.179 -0.59,6.783 -0.14,20.794 6.49,32.592 1.18,-9.439 2.95,-27.578 3.1,-31.413 0.15,-3.834 -0.17,-24.615 0.26,-28.303 0.84,-7.093 5.49,-8.418 5.93,-3.846 0.45,4.571 0.3,8.258 2.95,8.553 2.66,0.295 5.31,-4.424 6.05,-7.669 0.74,-3.244 7.82,-5.309 7.82,0.59 0,5.899 -0.45,16.223 -0.74,19.615 -0.3,3.392 -1.77,11.503 -1.62,14.452 0.14,2.95 0.88,13.863 0.88,13.863 0,0 5.02,-14.01 5.46,-17.55 0.44,-3.539 2.06,-16.517 3.1,-20.056 1.03,-3.54 3.68,-4.13 4.27,-0.885 0.59,3.244 0.89,6.784 0,11.65 -0.88,4.867 -3.69,23.892 -3.98,28.906 -0.29,5.014 -1.03,28.463 -1.03,31.707 0,3.245 -1.33,16.37 -1.18,20.352 0.15,3.982 1.18,19.024 1.33,22.859 0.14,3.834 0.14,13.567 1.47,16.812 1.33,3.244 5.01,11.65 10.32,15.927 -21.38,0 -56.77,0 -56.77,0 0,0 4.27,-9.881 5.45,-14.6 1.18,-4.719 3.25,-15.19 3.69,-22.121 0.44,-6.932 0.15,-22.269 0.15,-22.269 0,0 1.03,-11.061 -0.59,-16.37 -1.63,-5.309 -6.2,-15.043 -8.11,-27.136 -1.92,-12.093 -1.63,-20.204 -1.33,-24.481 z"
               style="fill:#967f53"
               id="path95"
               inkscape:connector-curvature="0" /></g></g><g
           transform="matrix(0.406635,0,0,0.439254,723.194,893.398)"
           id="g109"><g
             transform="matrix(0.270656,0,0,0.272873,1609.48,371.65)"
             id="g103"><path
               d="m 1312.45,196.686 c 0,0 6.91,2.304 11.01,-0.768 4.1,-3.072 4.1,-6.912 4.1,-6.912 0,0 9.21,6.144 15.1,0.256 5.89,-5.889 3.84,-14.849 3.84,-14.849 0,0 12.8,3.072 17.92,-4.865 5.12,-7.936 -0.51,-19.969 -0.51,-19.969 0,0 21.76,-0.768 23.3,-17.153 1.53,-16.385 -7.17,-25.857 -7.17,-25.857 0,0 10.34,-17.713 -7.19,-28.877 11,-9.705 12.82,-32.311 0.53,-38.455 -12.29,-6.145 -24.83,4.352 -24.83,4.352 0,0 -4.61,-23.042 -24.84,-25.602 -20.22,-2.56 -26.36,11.265 -26.36,11.265 0,0 -16.13,-19.457 -38.41,-9.217 -22.27,10.241 -14.08,30.21 -14.08,30.21 0,0 -15.36,-4.608 -25.09,8.193 -9.73,12.8 2.27,24.747 2.27,24.747 0,0 -36.83,11.607 -7.39,36.952 -11.01,19.714 5.47,31.917 14.94,32.685 -7.34,12.459 9.38,32.855 24.23,23.383 -8.4,18.386 17.53,21.963 21.76,18.689 11.26,5.777 23.54,6.394 36.87,1.792 z"
               style="fill:#55a12b"
               id="path101"
               inkscape:connector-curvature="0" /></g><g
             transform="matrix(0.281768,0,0,0.166075,1594.56,399.092)"
             id="g107"><path
               d="m 1269.55,129.436 c 0.29,-4.276 6.78,-6.194 6.63,-1.179 -0.59,6.783 -0.14,20.794 6.49,32.592 1.18,-9.439 2.95,-27.578 3.1,-31.413 0.15,-3.834 -0.17,-24.615 0.26,-28.303 0.84,-7.093 5.49,-8.418 5.93,-3.846 0.45,4.571 0.3,8.258 2.95,8.553 2.66,0.295 5.31,-4.424 6.05,-7.669 0.74,-3.244 7.82,-5.309 7.82,0.59 0,5.899 -0.45,16.223 -0.74,19.615 -0.3,3.392 -1.77,11.503 -1.62,14.452 0.14,2.95 0.88,13.863 0.88,13.863 0,0 5.02,-14.01 5.46,-17.55 0.44,-3.539 2.06,-16.517 3.1,-20.056 1.03,-3.54 3.68,-4.13 4.27,-0.885 0.59,3.244 0.89,6.784 0,11.65 -0.88,4.867 -3.69,23.892 -3.98,28.906 -0.29,5.014 -1.03,28.463 -1.03,31.707 0,3.245 -1.33,16.37 -1.18,20.352 0.15,3.982 1.18,19.024 1.33,22.859 0.14,3.834 0.14,13.567 1.47,16.812 1.33,3.244 5.01,11.65 10.32,15.927 -21.38,0 -56.77,0 -56.77,0 0,0 4.27,-9.881 5.45,-14.6 1.18,-4.719 3.25,-15.19 3.69,-22.121 0.44,-6.932 0.15,-22.269 0.15,-22.269 0,0 1.03,-11.061 -0.59,-16.37 -1.63,-5.309 -6.2,-15.043 -8.11,-27.136 -1.92,-12.093 -1.63,-20.204 -1.33,-24.481 z"
               style="fill:#967f53"
               id="path105"
               inkscape:connector-curvature="0" /></g></g><g
           transform="matrix(0.406635,0,0,0.439254,606.082,901.163)"
           id="g119"><g
             transform="matrix(0.270656,0,0,0.272873,1609.48,371.65)"
             id="g113"><path
               d="m 1312.45,196.686 c 0,0 6.91,2.304 11.01,-0.768 4.1,-3.072 4.1,-6.912 4.1,-6.912 0,0 9.21,6.144 15.1,0.256 5.89,-5.889 3.84,-14.849 3.84,-14.849 0,0 12.8,3.072 17.92,-4.865 5.12,-7.936 -0.51,-19.969 -0.51,-19.969 0,0 21.76,-0.768 23.3,-17.153 1.53,-16.385 -7.17,-25.857 -7.17,-25.857 0,0 10.34,-17.713 -7.19,-28.877 11,-9.705 12.82,-32.311 0.53,-38.455 -12.29,-6.145 -24.83,4.352 -24.83,4.352 0,0 -4.61,-23.042 -24.84,-25.602 -20.22,-2.56 -26.36,11.265 -26.36,11.265 0,0 -16.13,-19.457 -38.41,-9.217 -22.27,10.241 -14.08,30.21 -14.08,30.21 0,0 -15.36,-4.608 -25.09,8.193 -9.73,12.8 2.27,24.747 2.27,24.747 0,0 -36.83,11.607 -7.39,36.952 -11.01,19.714 5.47,31.917 14.94,32.685 -7.34,12.459 9.38,32.855 24.23,23.383 -8.4,18.386 17.53,21.963 21.76,18.689 11.26,5.777 23.54,6.394 36.87,1.792 z"
               style="fill:#55a12b"
               id="path111"
               inkscape:connector-curvature="0" /></g><g
             transform="matrix(0.281768,0,0,0.166075,1594.56,399.092)"
             id="g117"><path
               d="m 1269.55,129.436 c 0.29,-4.276 6.78,-6.194 6.63,-1.179 -0.59,6.783 -0.14,20.794 6.49,32.592 1.18,-9.439 2.95,-27.578 3.1,-31.413 0.15,-3.834 -0.17,-24.615 0.26,-28.303 0.84,-7.093 5.49,-8.418 5.93,-3.846 0.45,4.571 0.3,8.258 2.95,8.553 2.66,0.295 5.31,-4.424 6.05,-7.669 0.74,-3.244 7.82,-5.309 7.82,0.59 0,5.899 -0.45,16.223 -0.74,19.615 -0.3,3.392 -1.77,11.503 -1.62,14.452 0.14,2.95 0.88,13.863 0.88,13.863 0,0 5.02,-14.01 5.46,-17.55 0.44,-3.539 2.06,-16.517 3.1,-20.056 1.03,-3.54 3.68,-4.13 4.27,-0.885 0.59,3.244 0.89,6.784 0,11.65 -0.88,4.867 -3.69,23.892 -3.98,28.906 -0.29,5.014 -1.03,28.463 -1.03,31.707 0,3.245 -1.33,16.37 -1.18,20.352 0.15,3.982 1.18,19.024 1.33,22.859 0.14,3.834 0.14,13.567 1.47,16.812 1.33,3.244 5.01,11.65 10.32,15.927 -21.38,0 -56.77,0 -56.77,0 0,0 4.27,-9.881 5.45,-14.6 1.18,-4.719 3.25,-15.19 3.69,-22.121 0.44,-6.932 0.15,-22.269 0.15,-22.269 0,0 1.03,-11.061 -0.59,-16.37 -1.63,-5.309 -6.2,-15.043 -8.11,-27.136 -1.92,-12.093 -1.63,-20.204 -1.33,-24.481 z"
               style="fill:#967f53"
               id="path115"
               inkscape:connector-curvature="0" /></g></g></g></g></g><g
     transform="translate(-939.1792,3.562192)"
     id="g131"><g
       id="g129"><path
         d="m 1164.2,90.294 c 0,0 -14.63,-9.564 -33.2,-5.064 -18.56,4.501 -11.25,33.194 15.76,30.381 18.56,5.626 34.32,4.501 46.13,-1.125 16.31,7.876 39.94,5.626 47.26,-2.251 16.88,6.752 37.69,3.376 36.57,-14.065 -1.13,-17.44 -22.51,-14.065 -32.07,-11.252 -4.5,-14.065 -16.32,-19.691 -28.69,-18.566 -12.38,1.125 -21.38,18.566 -21.38,18.566 0,0 -14.07,-15.753 -30.38,3.376 z"
         style="fill:url(#_Linear7)"
         id="path127"
         inkscape:connector-curvature="0" /></g></g><g
     transform="translate(-373.5456,67.56224)"
     id="g137"><g
       id="g135"><path
         d="m 1164.2,90.294 c 0,0 -14.63,-9.564 -33.2,-5.064 -18.56,4.501 -11.25,33.194 15.76,30.381 18.56,5.626 34.32,4.501 46.13,-1.125 16.31,7.876 39.94,5.626 47.26,-2.251 16.88,6.752 37.69,3.376 36.57,-14.065 -1.13,-17.44 -22.51,-14.065 -32.07,-11.252 -4.5,-14.065 -16.32,-19.691 -28.69,-18.566 -12.38,1.125 -21.38,18.566 -21.38,18.566 0,0 -14.07,-15.753 -30.38,3.376 z"
         style="fill:url(#_Linear8)"
         id="path133"
         inkscape:connector-curvature="0" /></g></g><defs
     id="defs167"><linearGradient
       id="_Linear2"
       x1="0"
       y1="0"
       x2="1"
       y2="0"
       gradientUnits="userSpaceOnUse"
       gradientTransform="matrix(0,193.24,-184.084,0,1829.76,874.123)"><stop
         offset="0"
         style="stop-color:rgb(130,203,255);stop-opacity:1"
         id="stop142" /><stop
         offset="1"
         style="stop-color:rgb(254,252,205);stop-opacity:1"
         id="stop144" /></linearGradient><linearGradient
       id="_Linear4"
       x1="0"
       y1="0"
       x2="1"
       y2="0"
       gradientUnits="userSpaceOnUse"
       gradientTransform="matrix(0,196,-196,0,1742.64,147.853)"><stop
         offset="0"
         style="stop-color:rgb(83,224,217);stop-opacity:1"
         id="stop147" /><stop
         offset="1"
         style="stop-color:rgb(150,244,213);stop-opacity:1"
         id="stop149" /></linearGradient><linearGradient
       id="_Linear6"
       x1="0"
       y1="0"
       x2="1"
       y2="0"
       gradientUnits="userSpaceOnUse"
       gradientTransform="matrix(0,380.552,-304.48,0,4449.77,255.872)"><stop
         offset="0"
         style="stop-color:rgb(123,249,76);stop-opacity:1"
         id="stop152" /><stop
         offset="1"
         style="stop-color:rgb(60,199,113);stop-opacity:1"
         id="stop154" /></linearGradient><linearGradient
       id="_Linear7"
       x1="0"
       y1="0"
       x2="1"
       y2="0"
       gradientUnits="userSpaceOnUse"
       gradientTransform="matrix(0,46.875,-46.875,0,1217.66,71.6272)"><stop
         offset="0"
         style="stop-color:white;stop-opacity:1"
         id="stop157" /><stop
         offset="1"
         style="stop-color:rgb(178,249,241);stop-opacity:1"
         id="stop159" /></linearGradient><linearGradient
       id="_Linear8"
       x1="0"
       y1="0"
       x2="1"
       y2="0"
       gradientUnits="userSpaceOnUse"
       gradientTransform="matrix(0,46.875,-46.875,0,1217.66,71.6272)"><stop
         offset="0"
         style="stop-color:white;stop-opacity:1"
         id="stop162" /><stop
         offset="1"
         style="stop-color:rgb(178,249,241);stop-opacity:1"
         id="stop164" /></linearGradient></defs></svg>